<svg width="143" height="62" viewBox="0 0 143 62" fill="none" xmlns="http://www.w3.org/2000/svg">
<g clip-path="url(#clip0_459_65384)">
<g clip-path="url(#clip1_459_65384)">
<g clip-path="url(#clip2_459_65384)">
<path d="M11.9508 45.6743H8.622C3.6016 45.6743 0 42.5992 0 38.0964H17.8988C18.8265 38.0964 19.4268 38.7554 19.4268 39.6889V57.7C14.9521 57.7 11.9508 54.0758 11.9508 49.0239V45.6743ZM20.791 36.7236H17.4623C12.4419 36.7236 8.84028 33.7034 8.84028 29.2007H26.7391C27.6668 29.2007 28.3216 29.8047 28.3216 30.7382V48.7493C23.8469 48.7493 20.791 45.1251 20.791 40.0732V36.7236ZM29.6859 27.8279H26.3571C21.3367 27.8279 17.7351 24.7528 17.7351 20.25H35.634C36.5617 20.25 37.1619 20.9089 37.1619 21.7875V39.7987C32.6872 39.7987 29.6859 36.1745 29.6859 31.1226V27.8279Z" fill="#1868DB"/>
</g>
</g>
<path d="M97.5351 40.4991C97.5351 46.0191 99.7431 48.7791 103.837 48.7791C107.379 48.7791 110.553 46.5251 110.553 41.4191V39.5791C110.553 34.4731 107.655 32.2191 104.297 32.2191C99.8351 32.2191 97.5351 35.1631 97.5351 40.4991ZM110.553 51.9991V47.8591C109.081 50.8951 106.321 52.4591 102.779 52.4591C96.6611 52.4591 93.5791 47.2611 93.5791 40.4991C93.5791 34.0131 96.7991 28.5391 103.239 28.5391C106.597 28.5391 109.173 30.0571 110.553 33.0471V28.9991H114.509V51.9991H110.553Z" fill="#101214"/>
<path d="M83.864 38.4306V52.0006H80V29.0006H83.864V33.0486C85.198 30.3346 87.498 28.4026 92.006 28.6786V32.5426C86.946 32.0366 83.864 33.5546 83.864 38.4306Z" fill="#101214"/>
<path d="M69.3359 22.928C69.3359 21.18 70.4859 20.168 72.0959 20.168C73.7059 20.168 74.8559 21.18 74.8559 22.928C74.8559 24.676 73.7059 25.688 72.0959 25.688C70.4859 25.688 69.3359 24.676 69.3359 22.928ZM70.0719 52V29H74.0279V52H70.0719Z" fill="#101214"/>
<path d="M60.43 43.0753V21.7773H64.57V42.7993C64.57 48.3653 62.132 52.1833 56.428 52.1833C54.266 52.1833 52.61 51.8153 51.46 51.4013V47.3993C52.702 47.9053 54.22 48.1813 55.738 48.1813C59.234 48.1813 60.43 46.0653 60.43 43.0753Z" fill="#101214"/>
<path d="M101.96 8.06C101.96 6.01 100.66 5.14 98.21 4.53C96.67 4.14 96.31 3.81 96.31 3.3C96.31 2.69 96.85 2.38 97.86 2.38C99.08 2.38 100.29 2.77 101.43 3.32V0.76C100.63 0.33 99.28 0 97.93 0C95.26 0 93.77 1.28 93.77 3.36C93.77 5.44 95.08 6.35 97.33 6.85C98.88 7.19 99.36 7.45 99.36 8.12C99.36 8.63 98.99 9.04 97.81 9.04C96.43 9.04 94.78 8.55 93.71 7.87V10.56C94.56 11.01 96 11.5 97.79 11.5C100.61 11.5 101.95 10.13 101.95 8.06H101.96Z" fill="#1868DB"/>
<path d="M132.68 0.160156V11.3402H135.05V2.83016L136.05 5.09016L139.41 11.3502H142.4V0.170156H140.03V7.39016L139.13 5.30016L136.43 0.170156H132.69L132.68 0.160156Z" fill="#1868DB"/>
<path d="M117.6 0.160156H115V11.3402H117.6V0.160156Z" fill="#1868DB"/>
<path d="M73.6504 0.160156V11.3402H78.9704L79.8104 8.92016H76.2504V0.160156H73.6504Z" fill="#1868DB"/>
<path d="M63.1104 0.160156V2.58016H66.0004V11.3402H68.6003V2.58016H71.6904V0.160156H63.1104Z" fill="#1868DB"/>
<path d="M59.32 0.160156H55.9L52 11.3402H54.97L55.52 9.45016C56.18 9.64016 56.87 9.76016 57.61 9.76016C58.35 9.76016 59.02 9.66016 59.7 9.45016L60.25 11.3402H63.22L59.3 0.160156H59.32ZM57.6 7.46016C57.11 7.46016 56.62 7.38016 56.16 7.25016L57.6 2.36016L59.04 7.25016C58.59 7.37016 58.12 7.46016 57.6 7.46016Z" fill="#1868DB"/>
<path d="M88.1804 0.160156H84.7604L80.8604 11.3402H83.8304L84.3803 9.45016C85.0403 9.64016 85.7304 9.76016 86.4704 9.76016C87.2104 9.76016 87.8803 9.66016 88.5603 9.45016L89.1104 11.3402H92.0804L88.1603 0.160156H88.1804ZM86.4604 7.46016C85.9704 7.46016 85.4803 7.38016 85.0203 7.25016L86.4604 2.36016L87.9004 7.25016C87.4504 7.37016 86.9604 7.46016 86.4604 7.46016Z" fill="#1868DB"/>
<path d="M126.93 0.160156H123.51L119.61 11.3402H122.58L123.13 9.45016C123.79 9.64016 124.48 9.76016 125.22 9.76016C125.96 9.76016 126.63 9.66016 127.31 9.45016L127.86 11.3402H130.83L126.91 0.160156H126.93ZM125.23 7.46016C124.74 7.46016 124.25 7.38016 123.79 7.25016L125.23 2.36016L126.67 7.25016C126.2 7.37016 125.73 7.46016 125.23 7.46016Z" fill="#1868DB"/>
<path d="M112.32 8.06C112.32 6.01 111.02 5.14 108.57 4.53C107.03 4.14 106.67 3.81 106.67 3.3C106.67 2.69 107.21 2.38 108.22 2.38C109.44 2.38 110.65 2.77 111.79 3.32V0.76C110.99 0.33 109.64 0 108.29 0C105.62 0 104.13 1.28 104.13 3.36C104.13 5.44 105.44 6.35 107.69 6.85C109.24 7.19 109.72 7.45 109.72 8.12C109.72 8.63 109.35 9.04 108.17 9.04C106.79 9.04 105.14 8.55 104.07 7.87V10.56C104.92 11.01 106.36 11.5 108.15 11.5C110.97 11.5 112.31 10.13 112.31 8.06H112.32Z" fill="#1868DB"/>
</g>
<defs>
<clipPath id="clip0_459_65384">
<rect width="143" height="62" fill="white"/>
</clipPath>
<clipPath id="clip1_459_65384">
<rect width="43" height="48" fill="white" transform="translate(0 13)"/>
</clipPath>
<clipPath id="clip2_459_65384">
<rect width="37.1619" height="37.45" fill="white" transform="translate(0 20.25)"/>
</clipPath>
</defs>
</svg>
